<?xml version="1.0" standalone="no"?>
<!DOCTYPE svg PUBLIC "-//W3C//DTD SVG 20010904//EN"
 "http://www.w3.org/TR/2001/REC-SVG-20010904/DTD/svg10.dtd">
<svg version="1.0" xmlns="http://www.w3.org/2000/svg"
 width="394.000000pt" height="394.000000pt" viewBox="0 0 394.000000 394.000000"
 preserveAspectRatio="xMidYMid meet">
<metadata>
Created by potrace 1.14, written by Peter Selinger 2001-2017
</metadata>
<g transform="translate(0.000000,394.000000) scale(0.100000,-0.100000)"
fill="#000000" stroke="none">
<path d="M1778 3775 c-2 -2 -25 -6 -53 -9 -72 -10 -91 -13 -190 -36 -75 -16
-189 -54 -196 -63 -3 -5 -9 -9 -12 -8 -4 0 -21 -5 -39 -12 -18 -6 -36 -10 -40
-9 -5 1 -8 -2 -8 -8 0 -6 -3 -9 -7 -9 -13 3 -73 -25 -73 -33 0 -4 -6 -8 -14
-8 -19 0 -76 -33 -76 -43 0 -5 -4 -5 -10 -2 -5 3 -10 1 -10 -4 0 -6 -5 -11
-10 -11 -14 0 -141 -88 -162 -112 -10 -11 -18 -16 -18 -12 0 5 -5 1 -11 -8 -5
-10 -14 -18 -18 -18 -5 0 -37 -27 -72 -60 -34 -33 -67 -60 -71 -60 -5 0 -7 -4
-4 -8 6 -11 -30 -42 -39 -34 -4 4 -5 3 -3 -3 4 -14 -27 -57 -35 -48 -4 3 -7
-1 -7 -10 0 -9 -6 -20 -13 -24 -8 -4 -22 -21 -33 -38 -10 -16 -21 -32 -24 -35
-16 -15 -80 -117 -80 -128 0 -6 -4 -12 -9 -12 -5 0 -14 -13 -21 -30 -7 -16
-16 -30 -21 -30 -5 0 -6 -7 -3 -15 4 -8 1 -15 -7 -15 -7 0 -10 -3 -6 -6 3 -3
-5 -23 -18 -44 -13 -21 -21 -41 -18 -44 4 -3 1 -6 -5 -6 -7 0 -11 -3 -10 -7 4
-18 -26 -92 -35 -86 -6 3 -7 2 -4 -3 3 -6 -3 -37 -15 -69 -11 -33 -22 -69 -23
-80 -2 -11 -6 -29 -9 -40 -28 -119 -35 -162 -41 -230 -1 -22 -4 -41 -5 -42 -8
-10 -3 -209 5 -215 6 -5 6 -8 -1 -8 -7 0 -10 -13 -7 -32 2 -18 6 -55 8 -83 2
-27 4 -50 5 -50 1 0 3 -11 5 -25 1 -14 8 -51 14 -82 7 -32 13 -61 13 -65 0 -5
4 -18 9 -31 5 -13 11 -37 14 -55 4 -17 11 -35 18 -39 7 -4 9 -8 5 -8 -4 0 1
-23 12 -51 11 -28 17 -55 14 -61 -4 -7 -2 -8 4 -4 8 5 12 0 12 -13 0 -11 5
-23 10 -26 6 -3 10 -15 10 -26 0 -10 3 -19 8 -19 4 0 23 -34 42 -75 19 -41 38
-75 43 -75 4 0 7 -7 7 -15 0 -8 3 -15 8 -15 4 0 15 -18 26 -40 10 -21 25 -41
32 -44 8 -3 14 -12 14 -21 0 -8 5 -15 10 -15 6 0 10 -5 10 -11 0 -7 8 -19 18
-28 9 -9 29 -32 44 -51 37 -50 96 -110 107 -110 5 0 13 -9 16 -20 3 -11 10
-20 14 -20 5 0 27 -18 49 -40 23 -22 66 -56 97 -76 30 -20 55 -41 55 -45 0 -5
6 -9 13 -9 7 0 20 -9 30 -20 10 -12 22 -18 27 -15 6 3 10 1 10 -5 0 -6 4 -9 9
-6 5 3 11 -1 15 -9 3 -8 12 -15 21 -15 8 0 15 -5 15 -11 0 -5 5 -7 10 -4 5 3
10 1 10 -5 0 -6 4 -9 9 -6 5 4 11 3 13 -2 4 -9 116 -65 137 -68 8 -2 17 -6 20
-11 3 -4 15 -10 26 -11 11 -2 24 -8 29 -13 6 -5 18 -9 28 -9 10 0 18 -5 18
-11 0 -5 4 -8 9 -5 5 3 28 -1 51 -9 42 -15 74 -23 115 -30 11 -2 20 -4 20 -5
0 -1 9 -3 20 -5 11 -1 36 -5 55 -9 94 -16 128 -18 300 -18 188 0 300 8 310 20
3 4 16 8 30 8 58 4 140 23 157 37 7 5 13 7 13 4 0 -3 16 1 35 9 20 8 40 12 45
9 6 -4 10 -1 10 5 0 7 5 10 12 8 7 -3 20 3 30 11 18 16 22 17 52 20 8 0 22 9
32 18 10 10 18 16 18 14 2 -9 46 11 46 21 0 5 7 8 15 4 8 -3 15 0 15 6 0 6 3
9 6 5 4 -3 13 0 21 8 8 8 23 15 34 15 11 0 18 4 15 8 -3 5 9 16 27 26 63 33
78 43 92 62 8 11 15 15 15 11 0 -8 66 39 98 70 7 7 18 13 23 13 6 0 7 5 4 10
-3 6 -2 10 4 10 5 0 44 34 86 75 43 41 82 75 87 75 5 0 7 4 3 9 -3 5 10 27 29
48 19 21 42 46 50 56 9 9 16 22 16 27 0 6 4 10 9 10 5 0 17 17 26 37 10 21 23
43 29 50 24 28 32 39 41 58 4 11 7 23 7 28 -1 4 3 7 9 7 5 0 8 4 5 9 -3 5 1
14 9 21 8 7 12 16 9 21 -3 5 -1 9 4 9 9 0 40 66 43 88 0 4 9 22 21 40 11 17
17 32 14 32 -4 0 0 13 9 30 9 16 13 30 9 30 -4 0 -2 6 4 12 6 7 11 16 11 21 1
4 1 8 2 10 0 1 2 12 4 23 3 12 10 34 16 50 7 16 13 40 14 54 1 14 3 25 5 25
13 0 20 638 7 705 -4 19 -9 44 -10 55 -2 11 -7 27 -10 35 -4 8 -8 26 -9 40 -2
14 -6 27 -10 30 -4 3 -8 17 -10 30 -2 14 -6 30 -9 35 -10 17 -33 90 -31 98 1
4 -3 7 -10 7 -6 0 -8 3 -5 6 3 4 0 16 -8 28 -8 11 -15 28 -15 38 0 10 -4 18
-10 18 -5 0 -10 9 -10 20 0 11 -4 20 -10 20 -5 0 -10 7 -10 15 0 8 -5 15 -10
15 -6 0 -9 3 -8 8 4 11 -26 72 -34 72 -5 0 -8 7 -8 15 0 8 -5 15 -11 15 -5 0
-7 5 -4 10 3 6 2 10 -2 10 -5 0 -17 16 -27 35 -11 19 -23 35 -28 35 -4 0 -8 7
-8 15 0 8 -4 15 -10 15 -5 0 -10 6 -10 13 0 7 -10 23 -22 34 -13 11 -36 37
-53 58 -56 70 -159 169 -225 215 -19 14 -41 33 -48 43 -7 9 -19 17 -25 17 -7
0 -19 9 -26 19 -8 11 -20 17 -28 14 -7 -3 -13 2 -13 12 0 9 -4 14 -9 10 -5 -3
-16 2 -24 10 -9 8 -20 15 -26 15 -6 0 -11 5 -11 11 0 5 -5 7 -10 4 -6 -3 -13
1 -16 9 -3 9 -10 14 -14 11 -5 -3 -15 1 -23 9 -8 8 -17 12 -21 9 -3 -4 -6 -1
-6 5 0 7 -3 11 -7 10 -5 -1 -29 8 -54 20 -86 40 -214 87 -254 94 -11 2 -22 6
-25 10 -3 4 -21 8 -40 9 -19 2 -41 7 -47 12 -7 5 -19 7 -28 4 -8 -4 -17 -2
-20 4 -4 5 -10 7 -14 5 -4 -3 -25 0 -47 6 -33 8 -448 20 -456 13z"/>
</g>
</svg>
