<?xml version="1.0" encoding="utf-8"?>
<!-- Generator: Adobe Illustrator 25.2.3, SVG Export Plug-In . SVG Version: 6.00 Build 0)  -->
<svg version="1.1" id="Layer_1" xmlns:serif="http://www.serif.com/"
	 xmlns="http://www.w3.org/2000/svg" xmlns:xlink="http://www.w3.org/1999/xlink" x="0px" y="0px" viewBox="0 0 512 512"
	 style="enable-background:new 0 0 512 512;" xml:space="preserve">
<style type="text/css">
	.st0{fill-rule:evenodd;clip-rule:evenodd;fill:#131313;}
	.st1{fill:#111111;}
	.st2{fill:#131313;}
	.st3{fill:#161616;}
	.st4{fill:#191919;}
	.st5{fill:#202020;}
	.st6{fill-rule:evenodd;clip-rule:evenodd;fill:#FFFFFF;stroke:#FFFFFF;stroke-width:4;stroke-miterlimit:10;}
</style>
<rect class="st0" width="512" height="512"/>
<path class="st1" d="M0,275.3l21.3,2.7c21.3,2.8,64,8.2,106.7,19.1c42.7,10.8,85.3,27,128,22.2c42.7-4.7,85.3-30.3,128-40.7
	c42.7-10.3,85.3-5.4,106.7-2.9l21.3,2.4v234.4H0V275.3z"/>
<path class="st2" d="M0,327.7l21.3,0.2c21.3,0.2,64,0.6,106.7,5.4c42.7,4.8,85.3,14.2,128,10.8c42.7-3.4,85.3-19.6,128-25.7
	c42.7-6.1,85.3-2.4,106.7-0.5l21.3,1.9v192.9H0V327.7z"/>
<path class="st3" d="M0,344.7l21.3-0.6c21.3-0.6,64-1.7,106.7,5.9c42.7,7.6,85.3,23.9,128,33.8c42.7,10,85.3,13.6,128,7.2
	c42.7-6.4,85.3-22.6,106.7-30.8l21.3-8.1v160.4H0V344.7z"/>
<path class="st4" d="M0,396.5l21.3,5c21.3,5.1,64,15.1,106.7,13.9s85.3-13.4,128-14.6c42.7-1.1,85.3,8.9,128,7.1
	c42.7-1.8,85.3-15.5,106.7-22.3l21.3-6.8v133.7H0V396.5z"/>
<g transform="matrix(-1,0,0,1.19463,900,-175.364)">
	<path class="st5" d="M388,506.4l21.3,3c21.3,2.9,64,8.8,106.7,17.2s85.3,19.5,128,21.3c42.7,1.9,85.3-5.3,128-10.1
		c42.7-4.7,85.3-7,106.7-8.1l21.3-1.1v47.2H388V506.4z"/>
</g>
<path class="st6" d="M321.7,425.8c-1.8-4.5-3.6-9-5.4-14.4c-1.8-5.4-2.7-11.7-3.6-17.1c-4.5,5.4-10.9,9.9-17.2,15.3
	c-6.3,4.5-13.6,9-21.7,12.6c-7.2,3.6-16.3,6.3-25.3,8.1c-9,1.8-19,3.6-29.9,3.6c-17.2,0-33.5-2.7-48.9-7.2
	c-14.5-5.4-27.1-11.7-38-21.6c-10.9-9-19-19.8-24.4-32.4c-6.3-12.6-9.1-26.1-9.1-41.4c0-36,13.6-64,40.7-83.8
	c27.2-19.8,67.9-29.7,121.3-29.7h49.8V197c0-16.2-5.4-29.7-16.3-38.7c-10.9-9.9-26.2-14.4-47.1-14.4c-18.1,0-30.8,3.6-39.8,11.7
	c-8.1,7.2-12.7,18-12.7,30.6h-88.7c0-14.4,3.6-28.8,10-41.4c6.3-13.5,16.3-24.3,28.1-34.2c12.7-9.9,28.1-18,45.2-23.4
	c18.1-6.3,38.9-9,61.5-9c20.8,0,39.8,2.7,57.9,7.2c18.1,5.4,33.5,12.6,47.1,22.5c13.6,9.9,23.5,22.5,30.8,37.8
	c7.2,15.3,10.9,32.4,10.9,52.3v146.9c0,18,0.9,33.3,3.6,45.9c2.7,11.7,5.4,22.5,10,30.6l3.5,5.4h-91.8L321.7,425.8L321.7,425.8z
	 M404.7,421.6h-79.2c-1.5-3.7-2.9-7.4-4.4-11.8c-1.7-5.2-2.6-11.2-3.4-16.3c-0.3-2-1.8-3.6-3.7-4.1s-4,0.1-5.3,1.7
	c-4.3,5.2-10.4,9.4-16.4,14.6c-6,4.3-12.9,8.6-20.6,12c-0.1,0-0.1,0.1-0.2,0.1c-6.9,3.4-15.5,6-24.1,7.7h0
	c-8.7,1.7-18.4,3.5-28.9,3.5c-16.6,0-32.4-2.6-47.3-6.9c-13.8-5.2-25.8-11.1-36.2-20.5c-0.1-0.1-0.1-0.1-0.2-0.2
	c-10.2-8.5-17.9-18.6-23-30.5c0-0.1-0.1-0.2-0.1-0.3c-6-11.9-8.5-24.7-8.5-39.1c0-34.2,12.8-60.8,38.6-79.6
	c26.5-19.3,66.2-28.7,118.2-28.7h49.8c2.8,0,5.1-2.3,5.1-5.1V197c0-17.9-6.1-32.7-18.1-42.6c-11.7-10.6-28.1-15.7-50.4-15.7
	c-19.7,0-33.4,4.2-43.2,13c-8,7.1-13,17.3-14.2,29.3h-78.5c0.7-11.9,4-23.6,9.2-34c0,0,0-0.1,0.1-0.1c6-12.8,15.5-23,26.6-32.4
	c12.2-9.5,27-17.3,43.6-22.5c0,0,0.1,0,0.1,0c17.6-6.1,37.9-8.7,59.9-8.7c20.3,0,38.9,2.6,56.6,7c17.5,5.2,32.3,12.2,45.4,21.7
	c12.9,9.4,22.3,21.4,29.2,35.9c6.9,14.7,10.4,31.1,10.4,50.1v146.9c0,18.4,1,34.1,3.7,47c0,0,0,0.1,0,0.1
	C398,403,400.7,413.4,404.7,421.6L404.7,421.6z M237.5,368.8c9.6,0,18.2-1,26-3.8c7.6-1.9,15.2-4.8,21.8-8.6
	c6.8-3.8,12.5-7.7,17.4-12.5c4.9-4.8,8.7-9.7,11.6-14.5c0.5-0.8,0.7-1.7,0.7-2.6v-58.6c0-2.8-2.3-5.1-5.1-5.1h-45.3
	c-14.1,0-26.3,1.9-36.6,4.7c-10.7,2.9-19.4,6.9-25.3,11.7c-7.1,5.1-12.1,11.2-15.2,19.3c-2.9,6.9-4.9,14.7-4.9,23.5
	c0,13.1,5,24.2,14.1,33.3C204.7,364.4,218.6,368.8,237.5,368.8L237.5,368.8z M237.5,363.7c9,0,17.2-0.9,24.4-3.6
	c7.2-1.8,14.5-4.5,20.8-8.1c6.3-3.6,11.8-7.2,16.3-11.7c4.5-4.5,8.1-9,10.9-13.5v-58.6h-45.3c-13.6,0-25.3,1.8-35.3,4.5
	c-10,2.7-18.1,6.3-23.5,10.8c-6.3,4.5-10.9,9.9-13.6,17.1c-2.7,6.3-4.5,13.5-4.5,21.6c0,11.7,4.5,21.6,12.7,29.7
	C207.7,360.1,220.3,363.7,237.5,363.7L237.5,363.7z"/>
</svg>
